<svg width="200" height="200" viewBox="0 0 200 200" fill="none" xmlns="http://www.w3.org/2000/svg">
<path d="M87.6746 53.3173L87.8762 54.6824C88.7569 54.582 89.6019 54.3578 90.3892 54.0331C91.0784 53.7478 91.7248 53.3872 92.327 52.9657C93.3812 52.2266 94.2986 51.3063 95.091 50.2604C96.2768 48.6907 97.186 46.834 97.8057 44.8302C98.4275 42.8264 98.7577 40.6719 98.7577 38.5013C98.7577 37.5056 98.6864 36.5064 98.5416 35.5162C98.2542 33.559 97.6936 31.801 96.9026 30.26C96.3074 29.1029 95.5808 28.0696 94.7432 27.1691C93.4884 25.8182 91.9793 24.7706 90.3093 24.0656C88.6403 23.3606 86.8127 23 84.9388 23C84.3735 23 83.8029 23.0341 83.2311 23.0987H83.2321C81.599 23.2834 80.0552 23.7247 78.6647 24.401C77.6222 24.9105 76.6669 25.5509 75.8239 26.3116C74.5598 27.4525 73.554 28.8589 72.8698 30.4789C72.1857 32.097 71.821 33.9268 71.821 35.9252C71.821 36.7665 71.8852 37.6384 72.0175 38.5371C72.317 40.5661 72.9328 42.5645 73.7935 44.4338C74.4389 45.8348 75.2207 47.1641 76.1163 48.375C76.7878 49.2845 77.5223 50.1277 78.3126 50.8865C79.4981 52.0256 80.8097 52.9764 82.2359 53.6563C82.9483 53.9972 83.6894 54.2681 84.4555 54.4546C85.2216 54.6412 86.0119 54.7434 86.8127 54.7434C87.1658 54.7434 87.5211 54.7237 87.8752 54.6824H87.8762L87.6746 53.3173L87.4748 51.9521C87.254 51.9772 87.0335 51.988 86.8127 51.988C86.2201 51.988 85.6179 51.9001 85.0041 51.7243C84.4671 51.57 83.9216 51.3475 83.375 51.0587C82.4197 50.5546 75.727 38.732 74.8284 37.8601C73.479 36.5506 77.9469 45.3621 77 43.5C76.051 41.6415 75.4215 40.2252 75.122 38.1838C75.0054 37.3962 74.9508 36.6428 74.9508 35.9252C74.9508 34.4093 75.1956 33.0567 75.6317 31.8745C75.9575 30.9865 76.3915 30.1954 76.9117 29.4994C77.6927 28.4553 78.669 27.6247 79.7988 27.0094C80.9285 26.3923 82.2169 25.9905 83.6325 25.829H83.6335C84.0739 25.7788 76.0713 27.1691 76.5 27.1691C77.7643 27.1691 72.3743 35.0838 73.5 35.5C74.345 35.8121 79.0567 48.4288 79.7988 48.9742C80.9096 49.7904 83.7192 51.1348 84.5 52.5C85.281 53.8652 89.2172 51.0697 89.5 53C89.628 53.8665 94 47.1174 94 48C94 49.6737 95.4043 41.8505 94.986 43.4166C94.6728 44.5916 94.2502 45.7057 93.7385 46.7139C93.3549 47.4709 92.9199 48.1687 92.4469 48.7858C91.7365 49.7151 90.9388 50.4631 90.1021 50.9959C89.6828 51.2614 89.2551 51.4731 88.818 51.6328C88.3807 51.7924 87.9351 51.8983 87.4738 51.9521H87.4748L87.6746 53.3173Z" fill="#EAB22E"/>
<path d="M70.3138 49.2915L71.6907 48.6382C70.9907 47.4946 70.1939 46.4887 69.3197 45.6204C68.0069 44.3173 66.5146 43.3281 64.9194 42.6682C63.3261 42.0065 61.632 41.6774 59.941 41.6774C57.9474 41.6774 55.9632 42.1325 54.1356 43.0024C52.185 43.926 50.5824 45.2392 49.4767 46.8363C48.3691 48.4333 47.7647 50.3108 47.7668 52.3193C47.7668 54.4504 48.4383 56.7225 49.8383 59.0064C50.6486 60.3298 51.6459 61.5641 52.7694 62.6808C54.4562 64.3534 56.4245 65.759 58.5107 66.7633C59.5532 67.2654 60.6261 67.6668 61.713 67.9455C62.7996 68.2243 63.9009 68.3788 64.994 68.3788C65.7108 68.3788 66.4232 68.3116 67.1199 68.1672C67.8169 68.0228 68.4968 67.7994 69.142 67.4938C70.0638 67.0555 70.8624 66.4728 71.5265 65.7926C72.525 64.7699 73.2259 63.5356 73.6832 62.1938C74.1393 60.852 74.3536 59.396 74.3536 57.8964C74.3536 56.3497 74.1255 54.756 73.6799 53.1875C73.2343 51.6174 72.5712 50.0757 71.6907 48.6382L70.3138 49.2915L70.9832 64.3165C71.7313 65.5374 71.142 60.8386 71.5265 62.1938C71.9122 63.5507 71.225 56.5899 71.2239 57.8964C71.2239 58.7428 71.1429 59.5556 70.9832 60.313C70.7437 61.4516 70.3254 62.4558 69.762 63.2602C69.4815 63.6616 69.1642 64.0142 68.8142 64.3165C68.4642 64.6171 68.0806 64.8673 67.6571 65.0688C67.2608 65.2569 66.8436 65.3946 66.4001 65.487C65.9566 65.5794 65.4879 65.6247 64.994 65.6247C63.9902 65.6264 62.8814 65.4316 61.7391 65.0504C60.8826 64.7649 60.0082 64.377 59.1485 63.9C57.859 63.1829 56.6042 62.266 55.4808 61.2097C54.3573 60.1551 53.3663 58.9628 52.5929 57.6982V57.6999C51.4053 55.7603 50.8965 53.9399 50.8965 52.3193C50.8977 50.7911 51.3442 49.4342 52.1482 48.2704C52.9543 47.1083 47.9801 53.8979 49.4767 53.1875C50.8809 52.5225 53.0487 62.1955 54.5 62.1938C55.3217 62.1955 60.933 64.8354 61.7391 65.0504C62.9477 65.3745 63.881 65.9102 64.994 66.7633C66.1058 67.6164 70.0909 62.8605 70.9832 64.3165L70.3138 49.2915Z" fill="#EAB22E"/>
<path d="M113.868 53.3173L114.069 51.9521C113.523 51.8893 112.999 51.7512 112.483 51.5395C112.035 51.3529 111.592 51.1108 111.164 50.8094C110.412 50.2838 109.699 49.5823 109.056 48.7338C108.094 47.4619 107.299 45.8653 106.757 44.1055C106.211 42.3438 105.915 40.4208 105.915 38.4995C105.915 37.6169 105.978 36.7361 106.105 35.8696C106.357 34.1546 106.841 32.6638 107.493 31.3955C107.982 30.443 108.567 29.6178 109.222 28.9127C110.204 27.8561 104.861 31.9212 106.105 31.3955C107.348 30.8699 104.079 38.5018 105.5 38.5C105.93 38.5 107 50.3232 107 50.3232C108.26 50.4667 115.464 52.4959 116.5 53C117.277 53.3785 124.209 46.3066 124.839 46.8753C125.785 47.7292 126.956 32.7156 127.5 34C127 33 126.592 34.2192 126.592 35.9234C126.592 36.641 126.537 37.3944 126.421 38.1838C126.16 39.9615 125.612 41.7411 124.849 43.4005C124.277 44.6437 123.581 45.8187 122.803 46.8753C122.218 47.6664 121.586 48.3912 120.923 49.028C119.93 49.9824 118.87 50.734 117.816 51.2363C117.29 51.4857 116.766 51.6758 116.253 51.8014C115.737 51.9252 115.231 51.988 114.73 51.988C114.51 51.988 114.29 51.9772 114.069 51.9521L113.868 53.3173L113.668 54.6824C114.022 54.7237 114.377 54.7434 114.73 54.7434C115.68 54.7434 116.614 54.5999 117.51 54.3416C118.295 54.1174 119.052 53.8034 119.779 53.4195C121.047 52.7486 122.224 51.8642 123.296 50.8237C124.902 49.2648 126.28 47.3561 127.351 45.2572C128.419 43.1583 129.181 40.8674 129.524 38.5371C129.656 37.6366 129.722 36.7648 129.722 35.9234C129.722 34.1474 129.434 32.506 128.888 31.0242C128.072 28.8051 126.672 26.9502 124.839 25.5904C123.009 24.2306 120.76 23.3749 118.31 23.0986H118.312C117.741 23.0323 117.17 23 116.603 23C114.938 23 113.309 23.2834 111.796 23.8431C110.661 24.2611 109.591 24.8352 108.616 25.5509C107.152 26.6237 105.907 28.0194 104.951 29.6913C103.993 31.365 103.324 33.315 103.002 35.5162C102.855 36.5046 102.786 37.5038 102.786 38.4995C102.786 40.3885 103.037 42.2667 103.512 44.0427C103.866 45.3774 104.347 46.6529 104.947 47.8368C105.397 48.723 105.915 49.559 106.5 50.3232C107.379 51.4713 108.41 52.4652 109.609 53.2276C110.208 53.6079 110.848 53.929 111.527 54.1784C112.206 54.4259 112.924 54.5981 113.668 54.6824L113.868 53.3173Z" fill="#EAB22E"/>
<path d="M131.23 49.2915L132.606 49.9447C133.201 48.9758 133.861 48.1462 134.566 47.4476C135.621 46.4013 134.313 45.992 135.5 45.5C136.687 45.0096 131.155 47.4492 132.388 47.4476C133.838 47.4492 128.095 59.335 129.5 60C130.996 60.7104 131.195 64.1402 132 65.3023C132.805 66.466 140.136 66.2293 144.5 64.5C144.5 66.1206 150.138 55.7603 148.949 57.6999C148.262 58.8234 147.403 59.8898 146.43 60.8537C144.974 62.3013 143.262 63.5138 141.529 64.3467C140.665 64.7632 139.794 65.0856 138.955 65.3023C138.111 65.5172 137.302 65.6247 136.548 65.6247C136.054 65.6247 135.586 65.5794 135.142 65.487C134.699 65.3946 134.281 65.2569 133.884 65.0688C133.321 64.8002 132.827 64.4441 132.388 63.9974C132.062 63.6616 131.768 63.2753 131.51 62.8404C131.125 62.1905 130.825 61.4297 130.623 60.5951C130.421 59.7588 130.317 58.8469 130.317 57.8981C130.317 56.5916 130.512 55.2111 130.898 53.8542C131.283 52.499 131.859 51.1656 132.606 49.9447L131.23 49.2915L129.852 48.6382C128.97 50.0757 128.308 51.6174 127.861 53.1875C127.417 54.756 127.188 56.3497 127.188 57.8981C127.188 58.8973 127.285 59.8763 127.484 60.8168C127.779 62.2257 128.308 63.549 129.115 64.7027C129.518 65.2788 129.991 65.8128 130.539 66.2847C131.087 66.7549 131.711 67.1663 132.4 67.4938C133.045 67.7994 133.726 68.0228 134.422 68.1672C135.119 68.3116 135.833 68.3788 136.548 68.3788C138.006 68.3788 139.476 68.1034 140.911 67.6265C141.985 67.2688 143.042 66.7952 144.065 66.2293C145.596 65.3762 147.046 64.3148 148.346 63.0939C149.644 61.8731 150.792 60.4943 151.705 59.0064C153.103 56.7225 153.775 54.4504 153.775 52.3193C153.777 50.3108 153.174 48.4333 152.067 46.8363C150.96 45.2392 149.357 43.926 147.407 43.0024C145.579 42.1325 143.594 41.6774 141.602 41.6774C140.474 41.6774 139.346 41.8235 138.247 42.1173C136.596 42.5573 135.016 43.3315 133.592 44.4214C132.169 45.5146 130.903 46.9236 129.852 48.6382L131.23 49.2915Z" fill="#EAB22E"/>
<path d="M113.211 112.287L114.198 113.356C117.136 111.251 119.928 108.661 122.01 105.638C123.049 104.126 123.911 102.507 124.513 100.788C125.115 99.0696 125.457 97.2516 125.457 95.3611C125.457 93.9405 125.266 92.4788 124.852 90.9904C124.438 89.502 123.803 87.9867 122.927 86.4573C122.273 85.3142 121.496 84.3271 120.623 83.493C119.313 82.2411 117.787 81.3408 116.178 80.7637C114.567 80.1851 112.877 79.9265 111.216 79.9265C110.016 79.9265 108.83 80.0605 107.688 80.3081C105.975 80.677 104.363 81.2998 102.951 82.1229C101.543 82.9475 100.33 83.9724 99.448 85.1723L100.761 85.9196L102.076 85.1723C101.489 84.3729 100.947 82.9429 99.9121 83.0137C98.6507 82.0582 97.1474 81.2935 95.5133 80.7606C93.8792 80.2276 102.299 83.5016 100.5 83.5C99.3927 83.5 88.081 80.0416 86.9809 80.2891C85.3289 80.6597 83.7181 81.3345 82.2793 82.3578C80.8387 83.3795 78.9783 83.7861 78 85.5C77.1292 87.0184 77.4899 92.5258 77.0796 94C76.5 94.5 76.0869 93.879 76.0869 95.2854C76.0869 97.2185 76.4471 99.0727 77.0796 100.823C78.0274 103.45 79.5809 105.842 81.4461 107.973C83.3131 110.107 85.4937 111.983 87.7352 113.585C89.1722 114.611 90.9353 115.803 92.883 117.054C95.8035 118.93 99.1362 120.939 102.397 122.711C104.028 123.597 105.639 124.425 107.176 125.147C108.713 125.871 110.175 126.489 111.519 126.959C113.309 127.585 115.103 128.091 116.894 128.441C118.686 128.792 120.478 128.99 122.259 128.99C123.936 128.99 125.604 128.815 127.242 128.433C128.881 128.051 130.487 127.463 132.038 126.648C134.21 125.508 136.122 124.095 137.761 122.467C140.22 120.023 142.063 117.096 143.289 113.858C144.516 110.619 145.129 107.07 145.129 103.358C145.129 99.5473 144.484 95.5661 143.183 91.5659C141.881 87.5673 139.926 83.5514 137.297 79.6758C133.219 73.6621 128.036 68.7396 122.359 65.1446C119.521 63.3488 116.559 61.884 113.547 60.7834C110.535 59.6829 107.475 58.945 104.44 58.6107L104.426 58.6091L104.409 58.6075C104.379 58.6044 104.35 58.6028 104.323 58.6012L104.184 59.9714L104.381 58.606C103.979 58.5618 103.583 58.5271 103.195 58.4972C102.944 58.4782 102.689 58.4593 102.429 58.4467L102.424 58.4451H102.417C102.15 58.4325 101.888 58.4231 101.632 58.4167H101.641C101.354 58.4089 101.064 58.4026 100.77 58.4026C100.478 58.4026 100.188 58.4089 99.9013 58.4167H99.9103C99.6523 58.4231 99.3906 58.4325 99.1255 58.4451H99.1183L99.1111 58.4467C98.8513 58.4593 98.5969 58.4782 98.3478 58.4972C97.959 58.5271 97.5613 58.5618 97.1599 58.606L97.3588 59.9714L97.2208 58.6012C97.1904 58.6028 97.1617 58.6044 97.1312 58.6075L97.1169 58.6091L97.1026 58.6107C94.0673 58.945 91.0052 59.6829 87.995 60.7834C83.4762 62.4342 79.0702 64.9034 75.0262 68.0868C70.9838 71.2702 67.3023 75.1648 64.2441 79.6758C61.6156 83.5514 59.6599 87.5673 58.3587 91.5659C57.0577 95.5661 56.4125 99.5473 56.4125 103.358C56.4136 108.308 57.5011 112.97 59.6841 116.986C60.776 118.993 62.1422 120.838 63.7806 122.467C65.42 124.095 67.3317 125.508 69.5029 126.648C71.072 127.473 72.6987 128.066 74.3579 128.45C76.0153 128.833 77.7049 129.008 79.4053 129.008C81.3064 129.008 83.22 128.791 85.1372 128.406C87.0526 128.021 88.9733 127.468 90.8923 126.793C92.6679 126.167 94.6371 125.267 96.7048 124.207C99.8045 122.616 103.116 120.661 106.187 118.725C109.256 116.787 112.082 114.872 114.198 113.356L113.211 112.287L112.223 111.22C109.475 113.188 105.441 115.89 101.29 118.378C99.2151 119.622 97.1115 120.811 95.1298 121.828C93.1481 122.845 91.2847 123.689 89.7276 124.236C87.9323 124.868 86.1638 125.374 84.4402 125.721C82.7147 126.068 81.034 126.254 79.4053 126.254C77.9486 126.254 76.5331 126.106 75.1534 125.786C73.7738 125.467 73.5 126.5 75 127C73.1104 126.008 85.8736 128.924 84.4402 127.5C79.4053 128 99.174 123.176 98.0652 120.25C96.9565 117.325 92 116 87.7352 113.585C87.7352 110.048 78.5024 107.533 79.7278 103.768C80.9521 100.001 74.5889 97.6722 77.0796 94C80.9439 88.3001 76.9703 85.7178 82.2793 82.3578C84.9347 80.6754 97.7263 84.5138 100.5 83.5C103.275 82.4862 94.7607 61.6443 97.4914 61.3432L97.2979 59.9777L97.4627 61.3479C97.4735 61.3447 97.4824 61.3447 97.495 61.3447L97.5254 61.3416L97.5541 61.3384C97.9017 61.299 98.2565 61.2675 98.6166 61.2407H98.6184C98.8513 61.2217 99.0789 61.206 99.3064 61.1949H99.2921C99.5268 61.1839 99.7633 61.176 100.005 61.1697H100.011H100.014C100.267 61.1618 100.519 61.1571 100.77 61.1571C101.021 61.1571 101.276 61.1618 101.526 61.1697H101.532H101.537C101.779 61.176 102.016 61.1839 102.249 61.1949H102.236C102.462 61.206 102.76 61.1571 102.922 61.2407L96 61C96.3601 61.0268 99.9276 76.9666 100.275 77.0061L105 62.5L104.5 61.5L104.08 61.1303L104.044 61.3432C104.058 61.3447 104.038 61.3096 104.049 61.3112L104.245 59.9777L104.049 61.3432C106.782 61.6443 96.5328 83.6196 99.3064 84.6334C103.469 86.1534 112.7 78.5074 116.5 81.5C120.302 84.4911 123 93.5 125.143 98.5C122.613 109.5 102.547 116.453 103.771 120.22C104.996 123.985 114.5 125.5 118.5 126.959C118.502 131.553 136 121 132.5 124C131.525 125.794 136.851 119.217 135.418 120.642C133.984 122.066 132.323 123.291 130.435 124.283C129.129 124.967 127.803 125.453 126.443 125.77C125.083 126.087 123.691 126.235 122.259 126.235C120.74 126.235 119.177 126.068 117.575 125.754C115.975 125.44 114.336 124.98 112.673 124.4C111.087 123.845 109.183 123.004 107.158 121.995C104.117 120.48 100.792 118.586 97.71 116.701C94.6281 114.813 91.7864 112.932 89.7079 111.447C86.9289 109.463 84.2807 107.037 82.3545 104.303C81.3906 102.937 80.6058 101.495 80.0629 99.9904C79.52 98.4846 79.2172 96.9173 79.2172 95.2854C79.2172 94.0965 79.3784 92.873 79.7278 91.6085C80.0808 90.3455 80.6237 89.04 81.3942 87.695C81.9245 86.7663 82.5373 85.9969 83.2038 85.3599C84.2054 84.406 85.3289 83.7469 86.5312 83.3133C87.7316 82.8813 89.0145 82.681 90.31 82.681C91.2435 82.681 92.1842 82.7867 93.0908 82.9822C94.4543 83.277 95.7462 83.7769 96.8428 84.4186C97.9411 85.0587 98.8406 85.8376 99.448 86.667L100.761 88.4566L102.076 86.667C102.481 86.1151 103.015 85.5838 103.653 85.1013C104.608 84.3776 105.798 83.7658 107.099 83.3433C108.401 82.9175 109.813 82.681 111.216 82.681C112.078 82.681 112.938 82.7709 113.77 82.957C115.017 83.2392 116.203 83.7374 117.281 84.5021C118.358 85.2669 119.201 86.3798 120 87.7721C120.776 89.1296 121.5 90.5 121.811 91.6447C122.122 92.7895 122.327 94.158 122.327 95.3611C122.327 96.9615 122.04 98.4988 121.523 99.9762C120.747 102.191 119.448 104.271 117.826 106.165C116.203 108.058 114.259 109.761 112.223 111.22L113.211 112.287Z" fill="#EAB22E"/>
<path d="M46 166.497L48.2353 137.258C49.1913 137.086 50.3722 137 51.778 137C53.212 137 54.3788 137.086 55.2786 137.258L58.6948 149.556C59.4539 152.279 60.0022 154.687 60.3396 156.779H60.5927C60.9301 154.687 61.4784 152.279 62.2375 149.556L65.6537 137.258C66.6097 137.086 67.7765 137 69.1543 137C70.532 137 71.6989 137.086 72.6548 137.258L74.8901 166.497C74.1872 166.698 73.3296 166.798 72.3174 166.798C71.3333 166.798 70.4898 166.741 69.7869 166.626L68.9434 152.351C68.7747 149.713 68.6622 146.646 68.606 143.149H68.3529L63.2075 162.154C62.3078 162.298 61.3799 162.369 60.424 162.369C59.468 162.369 58.5683 162.298 57.7248 162.154L52.5794 143.149H52.3263C52.1857 147.42 52.0733 150.487 51.9889 152.351L51.1032 166.626C50.4284 166.741 49.5849 166.798 48.5727 166.798C47.5605 166.798 46.7029 166.698 46 166.497Z" fill="#354E67"/>
<path d="M96.6748 145.772L91.2342 165.938C90.3063 169.407 89.1395 171.944 87.7336 173.549C86.3559 175.183 84.2752 176 81.4917 176C79.9734 176 78.4832 175.742 77.0211 175.226C77.0211 175.083 77.0211 174.839 77.0211 174.495C77.0211 174.18 77.1054 173.678 77.2741 172.99C77.4709 172.331 77.7521 171.8 78.1176 171.399C79.2985 171.8 80.4654 172.001 81.6182 172.001C83.8113 172.001 85.3296 170.467 86.1731 167.4L86.3418 166.841C85.3296 166.813 84.5142 166.612 83.8957 166.239C83.3052 165.867 82.8834 165.236 82.6304 164.347L77.3585 145.686C78.4832 145.17 79.5516 144.912 80.5638 144.912C81.8853 144.912 82.7429 145.686 83.1365 147.234L85.6248 156.521C85.7092 156.779 86.1591 158.8 86.9745 162.584C87.0026 162.785 87.1291 162.885 87.354 162.885L91.6137 145.256C92.2604 145.112 93.0477 145.041 93.9756 145.041C94.9034 145.041 95.7469 145.17 96.5061 145.428L96.6748 145.772Z" fill="#354E67"/>
<path d="M109.145 137C112.126 137 114.516 137.846 116.315 139.537C118.143 141.2 119.057 143.622 119.057 146.804C119.057 149.957 118.143 152.394 116.315 154.114C114.516 155.805 112.126 156.65 109.145 156.65H105.096V166.583C104.394 166.727 103.494 166.798 102.397 166.798C101.301 166.798 100.415 166.727 99.7402 166.583V137.43L100.035 137.172C104.478 137.057 107.515 137 109.145 137ZM105.096 141.257V152.48C107.008 152.422 108.246 152.394 108.808 152.394C110.551 152.394 111.774 151.849 112.477 150.76C113.18 149.642 113.532 148.337 113.532 146.847C113.532 145.327 113.18 144.023 112.477 142.934C111.774 141.845 110.579 141.3 108.892 141.3C107.233 141.3 105.968 141.286 105.096 141.257Z" fill="#354E67"/>
<path d="M138.387 157.639H126.578C126.662 159.331 127.028 160.649 127.675 161.595C128.349 162.513 129.516 162.971 131.175 162.971C132.834 162.971 134.676 162.47 136.7 161.466C137.487 162.24 137.993 163.33 138.218 164.734C135.969 166.368 133.256 167.185 130.079 167.185C126.929 167.185 124.666 166.139 123.288 164.046C121.911 161.954 121.222 159.245 121.222 155.92C121.222 152.594 121.981 149.885 123.499 147.793C125.018 145.7 127.183 144.654 129.994 144.654C132.834 144.654 135.013 145.528 136.531 147.277C138.05 148.997 138.809 151.175 138.809 153.813C138.809 155.131 138.668 156.407 138.387 157.639ZM130.247 148.524C127.942 148.524 126.705 150.301 126.536 153.856H133.874V153.34C133.874 151.906 133.579 150.745 132.989 149.857C132.398 148.968 131.484 148.524 130.247 148.524Z" fill="#354E67"/>
<path d="M153.789 145.213C153.93 145.786 154 146.445 154 147.191C154 147.907 153.93 148.538 153.789 149.083L148.644 148.997V160.692C148.644 161.982 149.248 162.627 150.457 162.627H153.156C153.438 163.487 153.578 164.247 153.578 164.906C153.578 165.566 153.536 166.067 153.452 166.411C151.68 166.669 150.007 166.798 148.433 166.798C145.171 166.798 143.541 165.121 143.541 161.767V149.04L140.377 149.083C140.237 148.538 140.166 147.907 140.166 147.191C140.166 146.445 140.237 145.786 140.377 145.213L143.541 145.299V142.031C143.541 140.827 143.751 139.981 144.173 139.494C144.595 138.978 145.326 138.72 146.366 138.72H148.391L148.644 139.021V145.299L153.789 145.213Z" fill="#354E67"/>
</svg>
